<?xml version="1.0" encoding="UTF-8" standalone="no"?>
<!-- Created with Inkscape (http://www.inkscape.org/) -->

<svg
   width="6.7290869mm"
   height="2.3288798mm"
   viewBox="0 0 6.7290869 2.3288798"
   version="1.1"
   id="svg5"
   xmlns="http://www.w3.org/2000/svg"
   xmlns:svg="http://www.w3.org/2000/svg">
  <defs
     id="defs2" />
  <g
     id="layer1"
     transform="translate(-32.33377,-86.147286)">
    <g
       aria-label="2070"
       transform="matrix(0.99192454,0,0,1.0081412,0.15901535,16.539189)"
       id="text98676-8-9"
       style="font-size:3.16034px;line-height:1.25;fill:#000000;stroke-width:0.296282">
      <path
         d="m 33.932242,71.050512 v 0.266962 h -1.495297 q -0.0031,-0.100303 0.03241,-0.192891 0.0571,-0.152771 0.18209,-0.300912 0.126537,-0.148141 0.364179,-0.342576 0.36881,-0.302454 0.498433,-0.478371 0.129623,-0.177461 0.129623,-0.334861 0,-0.165115 -0.118821,-0.277764 -0.117278,-0.114192 -0.307084,-0.114192 -0.200608,0 -0.320972,0.120365 -0.120365,0.120364 -0.121908,0.333317 l -0.28548,-0.02932 q 0.02932,-0.319429 0.220669,-0.486087 0.191348,-0.168202 0.513864,-0.168202 0.325601,0 0.515407,0.180547 0.189805,0.180546 0.189805,0.447509 0,0.135796 -0.05555,0.266962 -0.05555,0.131167 -0.185176,0.276221 -0.12808,0.145055 -0.427448,0.398129 -0.249988,0.209866 -0.320972,0.28548 -0.07098,0.07407 -0.117278,0.149684 z"
         style="font-family:Arial;-inkscape-font-specification:Arial;fill:#000000"
         id="path145936" />
      <path
         d="m 34.230067,70.201788 q 0,-0.401215 0.08179,-0.64503 0.08333,-0.245359 0.245358,-0.378068 0.163572,-0.13271 0.410474,-0.13271 0.18209,0 0.319429,0.07407 0.137339,0.07253 0.226841,0.21141 0.0895,0.137339 0.140425,0.336403 0.05092,0.197522 0.05092,0.533925 0,0.398129 -0.08179,0.643487 -0.08179,0.243815 -0.245358,0.378068 -0.162029,0.13271 -0.410474,0.13271 -0.327145,0 -0.513864,-0.234557 -0.223755,-0.282393 -0.223755,-0.919708 z m 0.28548,0 q 0,0.557072 0.129624,0.742248 0.131166,0.183633 0.322515,0.183633 0.191349,0 0.320972,-0.185176 0.131166,-0.185177 0.131166,-0.740705 0,-0.558615 -0.131166,-0.742248 -0.129623,-0.183633 -0.324058,-0.183633 -0.191349,0 -0.305541,0.162029 -0.143512,0.20678 -0.143512,0.763852 z"
         style="font-family:Arial;-inkscape-font-specification:Arial;fill:#000000"
         id="path145938" />
      <path
         d="m 36.006216,69.351521 v -0.266963 h 1.464435 v 0.216039 q -0.216039,0.229927 -0.428992,0.611082 -0.211409,0.381154 -0.327144,0.783912 -0.08333,0.283937 -0.106477,0.621883 h -0.28548 q 0.0046,-0.266962 0.104933,-0.64503 0.100304,-0.378068 0.287024,-0.72836 0.188262,-0.351834 0.399671,-0.592563 z"
         style="font-family:Arial;-inkscape-font-specification:Arial;fill:#000000"
         id="path145940" />
      <path
         d="m 37.745329,70.201788 q 0,-0.401215 0.08179,-0.64503 0.08333,-0.245359 0.245358,-0.378068 0.163573,-0.13271 0.410474,-0.13271 0.18209,0 0.319429,0.07407 0.137339,0.07253 0.226841,0.21141 0.0895,0.137339 0.140425,0.336403 0.05092,0.197522 0.05092,0.533925 0,0.398129 -0.08179,0.643487 -0.08179,0.243815 -0.245359,0.378068 -0.162029,0.13271 -0.410474,0.13271 -0.327144,0 -0.513864,-0.234557 -0.223754,-0.282393 -0.223754,-0.919708 z m 0.28548,0 q 0,0.557072 0.129623,0.742248 0.131167,0.183633 0.322515,0.183633 0.191349,0 0.320972,-0.185176 0.131167,-0.185177 0.131167,-0.740705 0,-0.558615 -0.131167,-0.742248 -0.129623,-0.183633 -0.324058,-0.183633 -0.191349,0 -0.305541,0.162029 -0.143511,0.20678 -0.143511,0.763852 z"
         style="font-family:Arial;-inkscape-font-specification:Arial;fill:#000000"
         id="path145942" />
    </g>
  </g>
</svg>
